# xmcd CD database file
#
# Track frame offsets:
#	150
#	20171
#	30195
#	41217
#	56143
#	70942
#	91058
#	106335
#	117562
#	132930
#	151952
#	172726
#	178457
#	188758
#	193544
#	203294
#	214473
#	232182
#	248113
#	262050
#	268105
#	275297
#	289037
#	300870
#	313472
#	321350
#	332471
#	339091
#
# Disc length: 4781 seconds
#
# Revision: 3
# Processed by: cddbd v1.5.2PL0 Copyright (c) Steve Scherf et al.
# Submitted via: CDex 1.51
#
DISCID=9e12ab1c
DTITLE=Blue Collar Comedy Tour - One For The Road Disc 1
DYEAR=2006
DGENRE=Comedy
TTITLE0=Bill Engvall - I'm An Idiot
TTITLE1=Bill Engval - Good American Breakfast
TTITLE2=Bill Engvall - Scooter To Level 9
TTITLE3=Bill Engvall - You Need A Massage
TTITLE4=Bill Engvall - Buying Stuff
TTITLE5=Bill Engvall - Boarding Our Dogs
TTITLE6=Ron White - Erectile Dysfunction and Dieting Tips
TTITLE7=Ron White - Put The Damn Helmet On!
TTITLE8=Ron White - Indian Reservations and Sanibel Island
TTITLE9=Ron White - The Don Cesar Hotel
TTITLE10=Ron White - Eskimos and Grizzlies
TTITLE11=Ron White - Moussaoui and Sex Offenders
TTITLE12=Jeff Foxworthy - Cheapest Lasik Surgery
TTITLE13=Jeff Foxworthy - Redneck Dictionary
TTITLE14=Jeff Foxworthy - Supermodel or Redneck
TTITLE15=Jeff Foxworthy - Redneck Fashion Tip #1
TTITLE16=Jeff Foxworthy - Redneck Fashion Tip #2
TTITLE17=Jeff Foxworthy - More Fashion Tips
TTITLE18=Jeff Foxworthy - Tee Shirt Drawer
TTITLE19=Jeff Foxworthy - Hunting With My Wife
TTITLE20=Larry The Cable Guy - Amish Girls and Geico Insurance
TTITLE21=Larry The Cable Guy - Calgary Stampede, Sex Tapes and Weight Loss
TTITLE22=Larry The Cable Guy - Dating and Marriage
TTITLE23=Larry The Cable Guy - Fishing
TTITLE24=Larry The Cable Guy - Hunting, Popeyes and PETA
TTITLE25=Larry The Cable Guy - Bass Pro Shop and Wal-Mart
TTITLE26=Larry The Cable Guy - That's Embarrassing
TTITLE27=Larry The Cable Guy - Home Depot
EXTD=YEAR: 2006
EXTT0=
EXTT1=
EXTT2=
EXTT3=
EXTT4=
EXTT5=
EXTT6=
EXTT7=
EXTT8=
EXTT9=
EXTT10=
EXTT11=
EXTT12=
EXTT13=
EXTT14=
EXTT15=
EXTT16=
EXTT17=
EXTT18=
EXTT19=
EXTT20=
EXTT21=
EXTT22=
EXTT23=
EXTT24=
EXTT25=
EXTT26=
EXTT27=
PLAYORDER=
